<svg width="67" height="48" viewBox="0 0 67 48" fill="none" xmlns="http://www.w3.org/2000/svg">
<g filter="url(#filter0_d)">
<path fill-rule="evenodd" clip-rule="evenodd" d="M57.8917 6.58616L62.9302 27.7312C63.0013 27.9491 63.0184 28.1815 62.98 28.4078C62.9417 28.6341 62.849 28.8472 62.7102 29.0284C62.5715 29.2096 62.3909 29.3532 62.1845 29.4465C61.978 29.5398 61.7522 29.58 61.5268 29.5635H57.5201C56.8298 35.3747 51.9494 39.8784 46.0315 39.8784C40.1136 39.8784 35.2332 35.3747 34.543 29.5635H32.5778C31.8869 35.442 26.9527 40 20.9685 40C14.9742 40 10.0335 35.4266 9.35571 29.5337H5.45014C5.22961 29.5445 5.00974 29.5014 4.80891 29.4082C4.60808 29.315 4.43212 29.1743 4.29571 28.9979C4.1593 28.8214 4.06642 28.6144 4.0248 28.3941C3.98319 28.1737 3.99406 27.9464 4.05651 27.7312L9.10477 6.58616C9.45562 4.25872 11.6387 0 17.4861 0C17.8738 0 18.2456 0.156518 18.5197 0.435122C18.7939 0.713727 18.9479 1.0916 18.9479 1.4856C18.9479 1.87961 18.7939 2.25748 18.5197 2.53608C18.2456 2.81468 17.8738 2.9712 17.4861 2.9712C12.7789 2.9712 12.048 6.6654 11.9895 7.07146L7.3408 26.6022H9.37467C10.1209 20.7847 15.0272 16.2918 20.9685 16.2918C26.9066 16.2918 31.8107 20.7798 32.5611 26.5926L34.5587 26.6017C35.3043 20.8518 40.1567 16.4134 46.0315 16.4134C51.9178 16.4134 56.7776 20.8691 57.5086 26.6353V26.5824H59.6459L55.007 7.07146C54.9387 6.6654 54.237 2.9712 49.5104 2.9712C49.1227 2.9712 48.7509 2.81468 48.4767 2.53608C48.2026 2.25748 48.0485 1.87961 48.0485 1.4856C48.0485 1.0916 48.2026 0.713727 48.4767 0.435122C48.7509 0.156518 49.1227 0 49.5104 0C55.3578 0 57.5408 4.25872 57.8917 6.58616ZM29.6722 29.5635C29.7448 29.1018 29.7825 28.6283 29.7825 28.1459C29.7825 27.6164 29.7371 27.0977 29.65 26.5935C28.9252 22.3982 25.3141 19.2097 20.9685 19.2097C16.6203 19.2097 13.0075 22.402 12.2857 26.601C12.1994 27.1028 12.1545 27.619 12.1545 28.1459C12.1545 28.6205 12.191 29.0864 12.2612 29.541C12.9219 33.8136 16.5687 37.0821 20.9685 37.0821C25.3605 37.0821 29.0023 33.8251 29.6722 29.5635ZM54.6138 29.5635C54.6874 29.102 54.7256 28.6285 54.7256 28.1459C54.7256 23.2777 50.8331 19.3313 46.0315 19.3313C41.2299 19.3313 37.3374 23.2777 37.3374 28.1459C37.3374 28.6285 37.3756 29.102 37.4492 29.5635C38.118 33.7577 41.7058 36.9605 46.0315 36.9605C50.3572 36.9605 53.945 33.7577 54.6138 29.5635Z" fill="#D22856"/>
</g>
<defs>
<filter id="filter0_d" x="0" y="0" width="67" height="48" filterUnits="userSpaceOnUse" color-interpolation-filters="sRGB">
<feFlood flood-opacity="0" result="BackgroundImageFix"/>
<feColorMatrix in="SourceAlpha" type="matrix" values="0 0 0 0 0 0 0 0 0 0 0 0 0 0 0 0 0 0 127 0"/>
<feOffset dy="4"/>
<feGaussianBlur stdDeviation="2"/>
<feColorMatrix type="matrix" values="0 0 0 0 0 0 0 0 0 0 0 0 0 0 0 0 0 0 0.25 0"/>
<feBlend mode="normal" in2="BackgroundImageFix" result="effect1_dropShadow"/>
<feBlend mode="normal" in="SourceGraphic" in2="effect1_dropShadow" result="shape"/>
</filter>
</defs>
</svg>
